<svg width="412" height="72" viewBox="0 0 412 72" fill="none" xmlns="http://www.w3.org/2000/svg">
<path d="M67.25 32.9062C67.25 34.9375 66.9141 36.7109 66.2422 38.2266C65.5703 39.7266 64.6328 40.9844 63.4297 42C62.2422 43 60.8281 43.75 59.1875 44.25C57.5469 44.75 55.7656 45 53.8438 45H43.1562V44.3203C43.9062 44.3203 44.5 44.2734 44.9375 44.1797C45.3906 44.0859 45.7344 43.9141 45.9688 43.6641C46.2031 43.3984 46.3594 43.0391 46.4375 42.5859C46.5156 42.1172 46.5547 41.5156 46.5547 40.7812V25.2656C46.5547 24.5156 46.5234 23.9062 46.4609 23.4375C46.3984 22.9688 46.25 22.6094 46.0156 22.3594C45.7812 22.0938 45.4375 21.9141 44.9844 21.8203C44.5312 21.7266 43.9219 21.6797 43.1562 21.6797V21.0469H52.8828C54.8984 21.0469 56.7812 21.2344 58.5312 21.6094C60.2812 21.9844 61.7969 22.6328 63.0781 23.5547C64.375 24.4609 65.3906 25.6719 66.125 27.1875C66.875 28.7031 67.25 30.6094 67.25 32.9062ZM63.2656 33.0469C63.2656 31.5625 63.0547 30.1797 62.6328 28.8984C62.2266 27.6016 61.6094 26.4688 60.7812 25.5C59.9688 24.5312 58.9609 23.7734 57.7578 23.2266C56.5703 22.6641 55.1875 22.3828 53.6094 22.3828C52.9844 22.3828 52.3672 22.4297 51.7578 22.5234C51.1641 22.6172 50.5625 22.75 49.9531 22.9219V43.2656C50.5156 43.4219 51.125 43.5547 51.7812 43.6641C52.4375 43.7578 53.0781 43.8047 53.7031 43.8047C55.2656 43.8047 56.6406 43.5234 57.8281 42.9609C59.0156 42.3828 60.0078 41.6094 60.8047 40.6406C61.6172 39.6562 62.2266 38.5156 62.6328 37.2188C63.0547 35.9062 63.2656 34.5156 63.2656 33.0469ZM84.8984 45V44.3203C85.1641 44.3203 85.4375 44.3047 85.7188 44.2734C86 44.2266 86.2578 44.1484 86.4922 44.0391C86.7266 43.9297 86.9219 43.7812 87.0781 43.5938C87.2344 43.3906 87.3125 43.125 87.3125 42.7969C87.3125 42.4844 87.2188 42.0469 87.0312 41.4844C86.8438 40.9219 86.6328 40.3438 86.3984 39.75C86.1641 39.1562 85.9297 38.6016 85.6953 38.0859C85.4609 37.5703 85.2969 37.2031 85.2031 36.9844H75.9219C75.8594 37.1094 75.7578 37.3203 75.6172 37.6172C75.4922 37.8984 75.3438 38.2266 75.1719 38.6016C75 38.9609 74.8281 39.3438 74.6562 39.75C74.4844 40.1562 74.3203 40.5547 74.1641 40.9453C74.0234 41.3359 73.9062 41.6953 73.8125 42.0234C73.7188 42.3516 73.6719 42.6094 73.6719 42.7969C73.6719 43.1094 73.7734 43.3672 73.9766 43.5703C74.1797 43.7578 74.4297 43.9062 74.7266 44.0156C75.0234 44.125 75.3281 44.2031 75.6406 44.25C75.9531 44.2812 76.2266 44.3047 76.4609 44.3203V45H68.9141V44.3203C69.4766 44.3047 69.9609 44.1719 70.3672 43.9219C70.7734 43.6719 71.125 43.3516 71.4219 42.9609C71.7344 42.5703 72 42.1406 72.2188 41.6719C72.4375 41.1875 72.6484 40.7109 72.8516 40.2422L81.3125 20.5312H81.9219L90.2422 40.3828C90.4766 40.9297 90.6953 41.4375 90.8984 41.9062C91.1172 42.3594 91.375 42.7656 91.6719 43.125C91.9688 43.4688 92.3281 43.75 92.75 43.9688C93.1719 44.1719 93.7109 44.2891 94.3672 44.3203V45H84.8984ZM80.6328 25.9453L76.4609 35.6953H84.7109L80.6328 25.9453ZM120.289 21.6797C119.539 21.6797 118.938 21.7266 118.484 21.8203C118.031 21.9141 117.68 22.0938 117.43 22.3594C117.195 22.6094 117.039 22.9609 116.961 23.4141C116.898 23.8672 116.867 24.4531 116.867 25.1719V45.375H116.258L100.414 26.0859V40.8281C100.414 41.5781 100.445 42.1797 100.508 42.6328C100.586 43.0859 100.742 43.4375 100.977 43.6875C101.211 43.9375 101.555 44.1094 102.008 44.2031C102.461 44.2812 103.062 44.3203 103.812 44.3203V45H95.4688V44.3203C96.2188 44.3203 96.8125 44.2734 97.25 44.1797C97.7031 44.0859 98.0469 43.9141 98.2812 43.6641C98.5156 43.3984 98.6719 43.0391 98.75 42.5859C98.8281 42.1328 98.8672 41.5469 98.8672 40.8281V24.1641C98.5703 23.7578 98.2891 23.4062 98.0234 23.1094C97.7734 22.7969 97.5 22.5391 97.2031 22.3359C96.9219 22.1172 96.5938 21.9531 96.2188 21.8438C95.8438 21.7344 95.3828 21.6797 94.8359 21.6797V21.0469H100.695L115.344 39V25.1719C115.344 24.4531 115.305 23.8672 115.227 23.4141C115.148 22.9609 114.984 22.6094 114.734 22.3594C114.5 22.0938 114.156 21.9141 113.703 21.8203C113.266 21.7266 112.672 21.6797 111.922 21.6797V21.0469H120.289V21.6797ZM121.672 45V44.3203C122.438 44.3203 123.047 44.2734 123.5 44.1797C123.953 44.0703 124.297 43.8906 124.531 43.6406C124.766 43.375 124.914 43.0156 124.977 42.5625C125.039 42.0938 125.07 41.5 125.07 40.7812V25.2656C125.07 24.5312 125.039 23.9375 124.977 23.4844C124.914 23.0156 124.766 22.6484 124.531 22.3828C124.297 22.1172 123.953 21.9375 123.5 21.8438C123.047 21.7344 122.438 21.6797 121.672 21.6797V21.0469H131.938V21.6797C131.188 21.6797 130.586 21.7344 130.133 21.8438C129.68 21.9375 129.328 22.1172 129.078 22.3828C128.844 22.6484 128.688 23.0156 128.609 23.4844C128.531 23.9375 128.492 24.5312 128.492 25.2656V40.7812C128.492 41.5 128.523 42.0938 128.586 42.5625C128.664 43.0156 128.82 43.375 129.055 43.6406C129.289 43.8906 129.633 44.0703 130.086 44.1797C130.539 44.2734 131.156 44.3203 131.938 44.3203V45H121.672ZM152 45H133.578V44.3203C134.328 44.3203 134.922 44.2734 135.359 44.1797C135.812 44.0859 136.156 43.9141 136.391 43.6641C136.625 43.3984 136.781 43.0391 136.859 42.5859C136.938 42.1172 136.977 41.5156 136.977 40.7812V25.1719C136.977 24.4219 136.945 23.8203 136.883 23.3672C136.82 22.9141 136.672 22.5625 136.438 22.3125C136.203 22.0625 135.859 21.8984 135.406 21.8203C134.953 21.7266 134.344 21.6797 133.578 21.6797V21.0469H152L152.281 26.2734H151.625C151.422 25.5078 151.227 24.875 151.039 24.375C150.867 23.8594 150.625 23.4531 150.312 23.1562C150.016 22.8594 149.602 22.6484 149.07 22.5234C148.555 22.3984 147.852 22.3359 146.961 22.3359H140.352V31.8047H145.625C146.359 31.8047 146.945 31.7578 147.383 31.6641C147.836 31.5547 148.195 31.375 148.461 31.125C148.742 30.8594 148.945 30.5078 149.07 30.0703C149.211 29.6172 149.328 29.0391 149.422 28.3359H150.078V36.7031H149.422C149.328 36 149.211 35.4219 149.07 34.9688C148.945 34.5156 148.75 34.1562 148.484 33.8906C148.219 33.6094 147.859 33.4141 147.406 33.3047C146.969 33.1953 146.375 33.1406 145.625 33.1406H140.352V41.0156C140.352 41.4531 140.359 41.8438 140.375 42.1875C140.406 42.5156 140.484 42.7969 140.609 43.0312C140.734 43.25 140.93 43.4219 141.195 43.5469C141.477 43.6562 141.867 43.7109 142.367 43.7109H146.398C147.445 43.7109 148.305 43.625 148.977 43.4531C149.648 43.2812 150.227 43.0078 150.711 42.6328C151.211 42.2578 151.656 41.7734 152.047 41.1797C152.438 40.5703 152.875 39.8438 153.359 39H154.109L152 45ZM174.172 45H155.562V44.3203C156.125 44.3203 156.625 44.2891 157.062 44.2266C157.5 44.1484 157.859 44.0078 158.141 43.8047C158.438 43.5859 158.664 43.2812 158.82 42.8906C158.977 42.5 159.055 41.9844 159.055 41.3438V24.7031C159.055 24.0781 158.977 23.5703 158.82 23.1797C158.664 22.7891 158.438 22.4922 158.141 22.2891C157.859 22.0703 157.5 21.9219 157.062 21.8438C156.625 21.7656 156.125 21.7266 155.562 21.7266V21.0469H165.969V21.7266C165.391 21.7266 164.883 21.7656 164.445 21.8438C164.008 21.9219 163.641 22.0703 163.344 22.2891C163.047 22.4922 162.82 22.7891 162.664 23.1797C162.508 23.5703 162.43 24.0781 162.43 24.7031V40.4766C162.43 41.0703 162.477 41.5625 162.57 41.9531C162.664 42.3281 162.82 42.6328 163.039 42.8672C163.273 43.0859 163.586 43.2422 163.977 43.3359C164.367 43.4141 164.859 43.4531 165.453 43.4531H167.844C169 43.4531 169.969 43.3906 170.75 43.2656C171.531 43.125 172.203 42.875 172.766 42.5156C173.344 42.1406 173.852 41.625 174.289 40.9688C174.727 40.2969 175.172 39.4297 175.625 38.3672L176.234 38.4609L174.172 45Z" fill="#222222"/>
<path d="M209.094 45V44.3203C209.844 44.3203 210.438 44.2734 210.875 44.1797C211.328 44.0859 211.672 43.9141 211.906 43.6641C212.156 43.3984 212.32 43.0391 212.398 42.5859C212.477 42.1328 212.516 41.5469 212.516 40.8281V24.8438L203.234 45H202.672L193.414 24.8438V40.8281C193.414 41.5625 193.453 42.1562 193.531 42.6094C193.609 43.0625 193.766 43.4219 194 43.6875C194.234 43.9375 194.57 44.1094 195.008 44.2031C195.461 44.2812 196.062 44.3203 196.812 44.3203V45H188.516V44.3203C189.266 44.3203 189.859 44.2734 190.297 44.1797C190.734 44.0859 191.07 43.9141 191.305 43.6641C191.539 43.3984 191.688 43.0391 191.75 42.5859C191.828 42.1328 191.867 41.5469 191.867 40.8281V25.1719C191.867 24.5312 191.812 23.9922 191.703 23.5547C191.609 23.1016 191.438 22.7422 191.188 22.4766C190.938 22.1953 190.594 21.9922 190.156 21.8672C189.734 21.7422 189.188 21.6797 188.516 21.6797V21.0469H195.266L203.961 39.7734L212.516 21.0469H219.312V21.6797C218.562 21.6797 217.961 21.7266 217.508 21.8203C217.055 21.9141 216.711 22.0938 216.477 22.3594C216.242 22.6094 216.086 22.9609 216.008 23.4141C215.945 23.8672 215.914 24.4531 215.914 25.1719V40.8281C215.914 41.5625 215.953 42.1562 216.031 42.6094C216.109 43.0625 216.266 43.4219 216.5 43.6875C216.734 43.9375 217.07 44.1094 217.508 44.2031C217.961 44.2812 218.562 44.3203 219.312 44.3203V45H209.094ZM250.297 45H231.688V44.3203C232.25 44.3203 232.75 44.2891 233.188 44.2266C233.625 44.1484 233.984 44.0078 234.266 43.8047C234.562 43.5859 234.789 43.2812 234.945 42.8906C235.102 42.5 235.18 41.9844 235.18 41.3438V24.7031C235.18 24.0781 235.102 23.5703 234.945 23.1797C234.789 22.7891 234.562 22.4922 234.266 22.2891C233.984 22.0703 233.625 21.9219 233.188 21.8438C232.75 21.7656 232.25 21.7266 231.688 21.7266V21.0469H242.094V21.7266C241.516 21.7266 241.008 21.7656 240.57 21.8438C240.133 21.9219 239.766 22.0703 239.469 22.2891C239.172 22.4922 238.945 22.7891 238.789 23.1797C238.633 23.5703 238.555 24.0781 238.555 24.7031V40.4766C238.555 41.0703 238.602 41.5625 238.695 41.9531C238.789 42.3281 238.945 42.6328 239.164 42.8672C239.398 43.0859 239.711 43.2422 240.102 43.3359C240.492 43.4141 240.984 43.4531 241.578 43.4531H243.969C245.125 43.4531 246.094 43.3906 246.875 43.2656C247.656 43.125 248.328 42.875 248.891 42.5156C249.469 42.1406 249.977 41.625 250.414 40.9688C250.852 40.2969 251.297 39.4297 251.75 38.3672L252.359 38.4609L250.297 45ZM269.352 45V44.3203C269.617 44.3203 269.891 44.3047 270.172 44.2734C270.453 44.2266 270.711 44.1484 270.945 44.0391C271.18 43.9297 271.375 43.7812 271.531 43.5938C271.688 43.3906 271.766 43.125 271.766 42.7969C271.766 42.4844 271.672 42.0469 271.484 41.4844C271.297 40.9219 271.086 40.3438 270.852 39.75C270.617 39.1562 270.383 38.6016 270.148 38.0859C269.914 37.5703 269.75 37.2031 269.656 36.9844H260.375C260.312 37.1094 260.211 37.3203 260.07 37.6172C259.945 37.8984 259.797 38.2266 259.625 38.6016C259.453 38.9609 259.281 39.3438 259.109 39.75C258.938 40.1562 258.773 40.5547 258.617 40.9453C258.477 41.3359 258.359 41.6953 258.266 42.0234C258.172 42.3516 258.125 42.6094 258.125 42.7969C258.125 43.1094 258.227 43.3672 258.43 43.5703C258.633 43.7578 258.883 43.9062 259.18 44.0156C259.477 44.125 259.781 44.2031 260.094 44.25C260.406 44.2812 260.68 44.3047 260.914 44.3203V45H253.367V44.3203C253.93 44.3047 254.414 44.1719 254.82 43.9219C255.227 43.6719 255.578 43.3516 255.875 42.9609C256.188 42.5703 256.453 42.1406 256.672 41.6719C256.891 41.1875 257.102 40.7109 257.305 40.2422L265.766 20.5312H266.375L274.695 40.3828C274.93 40.9297 275.148 41.4375 275.352 41.9062C275.57 42.3594 275.828 42.7656 276.125 43.125C276.422 43.4688 276.781 43.75 277.203 43.9688C277.625 44.1719 278.164 44.2891 278.82 44.3203V45H269.352ZM265.086 25.9453L260.914 35.6953H269.164L265.086 25.9453ZM297.289 38.8594C297.289 39.9062 297.078 40.8438 296.656 41.6719C296.234 42.5 295.672 43.2031 294.969 43.7812C294.281 44.3594 293.484 44.8047 292.578 45.1172C291.672 45.4297 290.734 45.5859 289.766 45.5859C289.125 45.5859 288.484 45.5078 287.844 45.3516C287.203 45.2109 286.594 45.0547 286.016 44.8828C285.453 44.7109 284.938 44.5547 284.469 44.4141C284 44.2578 283.617 44.1797 283.32 44.1797C283.133 44.1797 282.969 44.2266 282.828 44.3203C282.703 44.3984 282.594 44.5078 282.5 44.6484C282.422 44.7891 282.359 44.9375 282.312 45.0938C282.281 45.2656 282.25 45.4297 282.219 45.5859H281.586V37.3125H282.219C282.344 38.3281 282.586 39.2578 282.945 40.1016C283.305 40.9453 283.781 41.6719 284.375 42.2812C284.969 42.875 285.68 43.3438 286.508 43.6875C287.352 44.0156 288.305 44.1797 289.367 44.1797C289.945 44.1797 290.516 44.1016 291.078 43.9453C291.656 43.7734 292.164 43.5234 292.602 43.1953C293.055 42.8672 293.422 42.4609 293.703 41.9766C293.984 41.4766 294.125 40.8984 294.125 40.2422C294.125 39.5547 293.938 38.9375 293.562 38.3906C293.203 37.8281 292.727 37.3125 292.133 36.8438C291.539 36.3594 290.859 35.9062 290.094 35.4844C289.328 35.0469 288.547 34.6094 287.75 34.1719C286.969 33.7344 286.195 33.2734 285.43 32.7891C284.664 32.3047 283.984 31.7734 283.391 31.1953C282.797 30.6016 282.312 29.9531 281.938 29.25C281.578 28.5312 281.398 27.7188 281.398 26.8125C281.398 25.8281 281.586 24.9453 281.961 24.1641C282.352 23.3828 282.867 22.7266 283.508 22.1953C284.148 21.6484 284.883 21.2344 285.711 20.9531C286.555 20.6719 287.438 20.5312 288.359 20.5312C288.906 20.5312 289.445 20.6016 289.977 20.7422C290.523 20.8828 291.039 21.0391 291.523 21.2109C292.023 21.3672 292.477 21.5156 292.883 21.6562C293.289 21.7969 293.625 21.8672 293.891 21.8672C294.078 21.8672 294.234 21.8203 294.359 21.7266C294.484 21.6328 294.594 21.5234 294.688 21.3984C294.781 21.2578 294.852 21.1094 294.898 20.9531C294.961 20.7969 295.008 20.6562 295.039 20.5312H295.719V28.7812H295.039C294.961 27.8438 294.758 26.9609 294.43 26.1328C294.102 25.2891 293.656 24.5625 293.094 23.9531C292.547 23.3281 291.883 22.8359 291.102 22.4766C290.32 22.1016 289.422 21.9141 288.406 21.9141C287.875 21.9141 287.359 22 286.859 22.1719C286.359 22.3438 285.906 22.5938 285.5 22.9219C285.109 23.2344 284.789 23.6172 284.539 24.0703C284.305 24.5078 284.188 25.0078 284.188 25.5703C284.188 26.2266 284.375 26.8203 284.75 27.3516C285.125 27.8828 285.617 28.375 286.227 28.8281C286.852 29.2812 287.555 29.7188 288.336 30.1406C289.117 30.5469 289.914 30.9688 290.727 31.4062C291.555 31.8281 292.359 32.2812 293.141 32.7656C293.922 33.25 294.617 33.7891 295.227 34.3828C295.852 34.9766 296.352 35.6406 296.727 36.375C297.102 37.0938 297.289 37.9219 297.289 38.8594ZM319.18 45H299.68V44.3203L315.008 22.4297H307.367C306.477 22.4297 305.742 22.5156 305.164 22.6875C304.602 22.8438 304.141 23.1016 303.781 23.4609C303.438 23.8203 303.164 24.2969 302.961 24.8906C302.773 25.4844 302.609 26.2031 302.469 27.0469H301.812L302.328 21.0469H320.047L304.297 43.5703H314.094C315.016 43.5703 315.781 43.4609 316.391 43.2422C317 43.0078 317.508 42.6797 317.914 42.2578C318.336 41.8203 318.688 41.2969 318.969 40.6875C319.25 40.0625 319.516 39.3594 319.766 38.5781L320.281 38.6719L319.18 45ZM340.578 45H321.969V44.3203C322.531 44.3203 323.031 44.2891 323.469 44.2266C323.906 44.1484 324.266 44.0078 324.547 43.8047C324.844 43.5859 325.07 43.2812 325.227 42.8906C325.383 42.5 325.461 41.9844 325.461 41.3438V24.7031C325.461 24.0781 325.383 23.5703 325.227 23.1797C325.07 22.7891 324.844 22.4922 324.547 22.2891C324.266 22.0703 323.906 21.9219 323.469 21.8438C323.031 21.7656 322.531 21.7266 321.969 21.7266V21.0469H332.375V21.7266C331.797 21.7266 331.289 21.7656 330.852 21.8438C330.414 21.9219 330.047 22.0703 329.75 22.2891C329.453 22.4922 329.227 22.7891 329.07 23.1797C328.914 23.5703 328.836 24.0781 328.836 24.7031V40.4766C328.836 41.0703 328.883 41.5625 328.977 41.9531C329.07 42.3281 329.227 42.6328 329.445 42.8672C329.68 43.0859 329.992 43.2422 330.383 43.3359C330.773 43.4141 331.266 43.4531 331.859 43.4531H334.25C335.406 43.4531 336.375 43.3906 337.156 43.2656C337.938 43.125 338.609 42.875 339.172 42.5156C339.75 42.1406 340.258 41.625 340.695 40.9688C341.133 40.2969 341.578 39.4297 342.031 38.3672L342.641 38.4609L340.578 45ZM368.094 32.9062C368.094 34.6094 367.812 36.2266 367.25 37.7578C366.688 39.2891 365.891 40.6406 364.859 41.8125C363.844 42.9688 362.609 43.8906 361.156 44.5781C359.719 45.25 358.109 45.5859 356.328 45.5859C354.547 45.5859 352.93 45.25 351.477 44.5781C350.039 43.9062 348.805 43 347.773 41.8594C346.758 40.7031 345.977 39.3594 345.43 37.8281C344.883 36.2969 344.609 34.6719 344.609 32.9531C344.609 31.2188 344.898 29.6016 345.477 28.1016C346.07 26.5859 346.898 25.2734 347.961 24.1641C349.023 23.0391 350.289 22.1562 351.758 21.5156C353.227 20.8594 354.844 20.5312 356.609 20.5312C358.344 20.5312 359.914 20.8672 361.32 21.5391C362.727 22.1953 363.93 23.0938 364.93 24.2344C365.945 25.3594 366.727 26.6719 367.273 28.1719C367.82 29.6719 368.094 31.25 368.094 32.9062ZM364.062 33.1406C364.062 32.2656 364.016 31.375 363.922 30.4688C363.844 29.5625 363.695 28.6875 363.477 27.8438C363.258 27 362.961 26.2109 362.586 25.4766C362.211 24.7422 361.734 24.1016 361.156 23.5547C360.578 23.0078 359.883 22.5781 359.07 22.2656C358.273 21.9375 357.328 21.7734 356.234 21.7734C355.234 21.7734 354.352 21.9375 353.586 22.2656C352.836 22.5781 352.18 23.0078 351.617 23.5547C351.055 24.1016 350.586 24.7422 350.211 25.4766C349.836 26.2109 349.531 26.9922 349.297 27.8203C349.078 28.6328 348.922 29.4766 348.828 30.3516C348.734 31.2109 348.688 32.0469 348.688 32.8594C348.688 33.6562 348.734 34.4922 348.828 35.3672C348.922 36.2422 349.086 37.1016 349.32 37.9453C349.555 38.7891 349.859 39.5938 350.234 40.3594C350.609 41.125 351.078 41.7969 351.641 42.375C352.203 42.9531 352.867 43.4141 353.633 43.7578C354.398 44.1016 355.281 44.2734 356.281 44.2734C357.328 44.2734 358.242 44.1172 359.023 43.8047C359.82 43.4922 360.508 43.0703 361.086 42.5391C361.664 41.9922 362.141 41.3594 362.516 40.6406C362.906 39.9062 363.211 39.1328 363.43 38.3203C363.664 37.4922 363.828 36.6406 363.922 35.7656C364.016 34.875 364.062 34 364.062 33.1406Z" fill="#222222"/>
<path d="M209.094 45V44.3203C209.844 44.3203 210.438 44.2734 210.875 44.1797C211.328 44.0859 211.672 43.9141 211.906 43.6641C212.156 43.3984 212.32 43.0391 212.398 42.5859C212.477 42.1328 212.516 41.5469 212.516 40.8281V24.8438L203.234 45H202.672L193.414 24.8438V40.8281C193.414 41.5625 193.453 42.1562 193.531 42.6094C193.609 43.0625 193.766 43.4219 194 43.6875C194.234 43.9375 194.57 44.1094 195.008 44.2031C195.461 44.2812 196.062 44.3203 196.812 44.3203V45H188.516V44.3203C189.266 44.3203 189.859 44.2734 190.297 44.1797C190.734 44.0859 191.07 43.9141 191.305 43.6641C191.539 43.3984 191.688 43.0391 191.75 42.5859C191.828 42.1328 191.867 41.5469 191.867 40.8281V25.1719C191.867 24.5312 191.812 23.9922 191.703 23.5547C191.609 23.1016 191.438 22.7422 191.188 22.4766C190.938 22.1953 190.594 21.9922 190.156 21.8672C189.734 21.7422 189.188 21.6797 188.516 21.6797V21.0469H195.266L203.961 39.7734L212.516 21.0469H219.312V21.6797C218.562 21.6797 217.961 21.7266 217.508 21.8203C217.055 21.9141 216.711 22.0938 216.477 22.3594C216.242 22.6094 216.086 22.9609 216.008 23.4141C215.945 23.8672 215.914 24.4531 215.914 25.1719V40.8281C215.914 41.5625 215.953 42.1562 216.031 42.6094C216.109 43.0625 216.266 43.4219 216.5 43.6875C216.734 43.9375 217.07 44.1094 217.508 44.2031C217.961 44.2812 218.562 44.3203 219.312 44.3203V45H209.094ZM250.297 45H231.688V44.3203C232.25 44.3203 232.75 44.2891 233.188 44.2266C233.625 44.1484 233.984 44.0078 234.266 43.8047C234.562 43.5859 234.789 43.2812 234.945 42.8906C235.102 42.5 235.18 41.9844 235.18 41.3438V24.7031C235.18 24.0781 235.102 23.5703 234.945 23.1797C234.789 22.7891 234.562 22.4922 234.266 22.2891C233.984 22.0703 233.625 21.9219 233.188 21.8438C232.75 21.7656 232.25 21.7266 231.688 21.7266V21.0469H242.094V21.7266C241.516 21.7266 241.008 21.7656 240.57 21.8438C240.133 21.9219 239.766 22.0703 239.469 22.2891C239.172 22.4922 238.945 22.7891 238.789 23.1797C238.633 23.5703 238.555 24.0781 238.555 24.7031V40.4766C238.555 41.0703 238.602 41.5625 238.695 41.9531C238.789 42.3281 238.945 42.6328 239.164 42.8672C239.398 43.0859 239.711 43.2422 240.102 43.3359C240.492 43.4141 240.984 43.4531 241.578 43.4531H243.969C245.125 43.4531 246.094 43.3906 246.875 43.2656C247.656 43.125 248.328 42.875 248.891 42.5156C249.469 42.1406 249.977 41.625 250.414 40.9688C250.852 40.2969 251.297 39.4297 251.75 38.3672L252.359 38.4609L250.297 45ZM269.352 45V44.3203C269.617 44.3203 269.891 44.3047 270.172 44.2734C270.453 44.2266 270.711 44.1484 270.945 44.0391C271.18 43.9297 271.375 43.7812 271.531 43.5938C271.688 43.3906 271.766 43.125 271.766 42.7969C271.766 42.4844 271.672 42.0469 271.484 41.4844C271.297 40.9219 271.086 40.3438 270.852 39.75C270.617 39.1562 270.383 38.6016 270.148 38.0859C269.914 37.5703 269.75 37.2031 269.656 36.9844H260.375C260.312 37.1094 260.211 37.3203 260.07 37.6172C259.945 37.8984 259.797 38.2266 259.625 38.6016C259.453 38.9609 259.281 39.3438 259.109 39.75C258.938 40.1562 258.773 40.5547 258.617 40.9453C258.477 41.3359 258.359 41.6953 258.266 42.0234C258.172 42.3516 258.125 42.6094 258.125 42.7969C258.125 43.1094 258.227 43.3672 258.43 43.5703C258.633 43.7578 258.883 43.9062 259.18 44.0156C259.477 44.125 259.781 44.2031 260.094 44.25C260.406 44.2812 260.68 44.3047 260.914 44.3203V45H253.367V44.3203C253.93 44.3047 254.414 44.1719 254.82 43.9219C255.227 43.6719 255.578 43.3516 255.875 42.9609C256.188 42.5703 256.453 42.1406 256.672 41.6719C256.891 41.1875 257.102 40.7109 257.305 40.2422L265.766 20.5312H266.375L274.695 40.3828C274.93 40.9297 275.148 41.4375 275.352 41.9062C275.57 42.3594 275.828 42.7656 276.125 43.125C276.422 43.4688 276.781 43.75 277.203 43.9688C277.625 44.1719 278.164 44.2891 278.82 44.3203V45H269.352ZM265.086 25.9453L260.914 35.6953H269.164L265.086 25.9453ZM297.289 38.8594C297.289 39.9062 297.078 40.8438 296.656 41.6719C296.234 42.5 295.672 43.2031 294.969 43.7812C294.281 44.3594 293.484 44.8047 292.578 45.1172C291.672 45.4297 290.734 45.5859 289.766 45.5859C289.125 45.5859 288.484 45.5078 287.844 45.3516C287.203 45.2109 286.594 45.0547 286.016 44.8828C285.453 44.7109 284.938 44.5547 284.469 44.4141C284 44.2578 283.617 44.1797 283.32 44.1797C283.133 44.1797 282.969 44.2266 282.828 44.3203C282.703 44.3984 282.594 44.5078 282.5 44.6484C282.422 44.7891 282.359 44.9375 282.312 45.0938C282.281 45.2656 282.25 45.4297 282.219 45.5859H281.586V37.3125H282.219C282.344 38.3281 282.586 39.2578 282.945 40.1016C283.305 40.9453 283.781 41.6719 284.375 42.2812C284.969 42.875 285.68 43.3438 286.508 43.6875C287.352 44.0156 288.305 44.1797 289.367 44.1797C289.945 44.1797 290.516 44.1016 291.078 43.9453C291.656 43.7734 292.164 43.5234 292.602 43.1953C293.055 42.8672 293.422 42.4609 293.703 41.9766C293.984 41.4766 294.125 40.8984 294.125 40.2422C294.125 39.5547 293.938 38.9375 293.562 38.3906C293.203 37.8281 292.727 37.3125 292.133 36.8438C291.539 36.3594 290.859 35.9062 290.094 35.4844C289.328 35.0469 288.547 34.6094 287.75 34.1719C286.969 33.7344 286.195 33.2734 285.43 32.7891C284.664 32.3047 283.984 31.7734 283.391 31.1953C282.797 30.6016 282.312 29.9531 281.938 29.25C281.578 28.5312 281.398 27.7188 281.398 26.8125C281.398 25.8281 281.586 24.9453 281.961 24.1641C282.352 23.3828 282.867 22.7266 283.508 22.1953C284.148 21.6484 284.883 21.2344 285.711 20.9531C286.555 20.6719 287.438 20.5312 288.359 20.5312C288.906 20.5312 289.445 20.6016 289.977 20.7422C290.523 20.8828 291.039 21.0391 291.523 21.2109C292.023 21.3672 292.477 21.5156 292.883 21.6562C293.289 21.7969 293.625 21.8672 293.891 21.8672C294.078 21.8672 294.234 21.8203 294.359 21.7266C294.484 21.6328 294.594 21.5234 294.688 21.3984C294.781 21.2578 294.852 21.1094 294.898 20.9531C294.961 20.7969 295.008 20.6562 295.039 20.5312H295.719V28.7812H295.039C294.961 27.8438 294.758 26.9609 294.43 26.1328C294.102 25.2891 293.656 24.5625 293.094 23.9531C292.547 23.3281 291.883 22.8359 291.102 22.4766C290.32 22.1016 289.422 21.9141 288.406 21.9141C287.875 21.9141 287.359 22 286.859 22.1719C286.359 22.3438 285.906 22.5938 285.5 22.9219C285.109 23.2344 284.789 23.6172 284.539 24.0703C284.305 24.5078 284.188 25.0078 284.188 25.5703C284.188 26.2266 284.375 26.8203 284.75 27.3516C285.125 27.8828 285.617 28.375 286.227 28.8281C286.852 29.2812 287.555 29.7188 288.336 30.1406C289.117 30.5469 289.914 30.9688 290.727 31.4062C291.555 31.8281 292.359 32.2812 293.141 32.7656C293.922 33.25 294.617 33.7891 295.227 34.3828C295.852 34.9766 296.352 35.6406 296.727 36.375C297.102 37.0938 297.289 37.9219 297.289 38.8594ZM319.18 45H299.68V44.3203L315.008 22.4297H307.367C306.477 22.4297 305.742 22.5156 305.164 22.6875C304.602 22.8438 304.141 23.1016 303.781 23.4609C303.438 23.8203 303.164 24.2969 302.961 24.8906C302.773 25.4844 302.609 26.2031 302.469 27.0469H301.812L302.328 21.0469H320.047L304.297 43.5703H314.094C315.016 43.5703 315.781 43.4609 316.391 43.2422C317 43.0078 317.508 42.6797 317.914 42.2578C318.336 41.8203 318.688 41.2969 318.969 40.6875C319.25 40.0625 319.516 39.3594 319.766 38.5781L320.281 38.6719L319.18 45ZM340.578 45H321.969V44.3203C322.531 44.3203 323.031 44.2891 323.469 44.2266C323.906 44.1484 324.266 44.0078 324.547 43.8047C324.844 43.5859 325.07 43.2812 325.227 42.8906C325.383 42.5 325.461 41.9844 325.461 41.3438V24.7031C325.461 24.0781 325.383 23.5703 325.227 23.1797C325.07 22.7891 324.844 22.4922 324.547 22.2891C324.266 22.0703 323.906 21.9219 323.469 21.8438C323.031 21.7656 322.531 21.7266 321.969 21.7266V21.0469H332.375V21.7266C331.797 21.7266 331.289 21.7656 330.852 21.8438C330.414 21.9219 330.047 22.0703 329.75 22.2891C329.453 22.4922 329.227 22.7891 329.07 23.1797C328.914 23.5703 328.836 24.0781 328.836 24.7031V40.4766C328.836 41.0703 328.883 41.5625 328.977 41.9531C329.07 42.3281 329.227 42.6328 329.445 42.8672C329.68 43.0859 329.992 43.2422 330.383 43.3359C330.773 43.4141 331.266 43.4531 331.859 43.4531H334.25C335.406 43.4531 336.375 43.3906 337.156 43.2656C337.938 43.125 338.609 42.875 339.172 42.5156C339.75 42.1406 340.258 41.625 340.695 40.9688C341.133 40.2969 341.578 39.4297 342.031 38.3672L342.641 38.4609L340.578 45ZM368.094 32.9062C368.094 34.6094 367.812 36.2266 367.25 37.7578C366.688 39.2891 365.891 40.6406 364.859 41.8125C363.844 42.9688 362.609 43.8906 361.156 44.5781C359.719 45.25 358.109 45.5859 356.328 45.5859C354.547 45.5859 352.93 45.25 351.477 44.5781C350.039 43.9062 348.805 43 347.773 41.8594C346.758 40.7031 345.977 39.3594 345.43 37.8281C344.883 36.2969 344.609 34.6719 344.609 32.9531C344.609 31.2188 344.898 29.6016 345.477 28.1016C346.07 26.5859 346.898 25.2734 347.961 24.1641C349.023 23.0391 350.289 22.1562 351.758 21.5156C353.227 20.8594 354.844 20.5312 356.609 20.5312C358.344 20.5312 359.914 20.8672 361.32 21.5391C362.727 22.1953 363.93 23.0938 364.93 24.2344C365.945 25.3594 366.727 26.6719 367.273 28.1719C367.82 29.6719 368.094 31.25 368.094 32.9062ZM364.062 33.1406C364.062 32.2656 364.016 31.375 363.922 30.4688C363.844 29.5625 363.695 28.6875 363.477 27.8438C363.258 27 362.961 26.2109 362.586 25.4766C362.211 24.7422 361.734 24.1016 361.156 23.5547C360.578 23.0078 359.883 22.5781 359.07 22.2656C358.273 21.9375 357.328 21.7734 356.234 21.7734C355.234 21.7734 354.352 21.9375 353.586 22.2656C352.836 22.5781 352.18 23.0078 351.617 23.5547C351.055 24.1016 350.586 24.7422 350.211 25.4766C349.836 26.2109 349.531 26.9922 349.297 27.8203C349.078 28.6328 348.922 29.4766 348.828 30.3516C348.734 31.2109 348.688 32.0469 348.688 32.8594C348.688 33.6562 348.734 34.4922 348.828 35.3672C348.922 36.2422 349.086 37.1016 349.32 37.9453C349.555 38.7891 349.859 39.5938 350.234 40.3594C350.609 41.125 351.078 41.7969 351.641 42.375C352.203 42.9531 352.867 43.4141 353.633 43.7578C354.398 44.1016 355.281 44.2734 356.281 44.2734C357.328 44.2734 358.242 44.1172 359.023 43.8047C359.82 43.4922 360.508 43.0703 361.086 42.5391C361.664 41.9922 362.141 41.3594 362.516 40.6406C362.906 39.9062 363.211 39.1328 363.43 38.3203C363.664 37.4922 363.828 36.6406 363.922 35.7656C364.016 34.875 364.062 34 364.062 33.1406Z" fill="#2C65BA"/>
</svg>
