<svg width="277" height="50" viewBox="0 0 277 50" fill="none" xmlns="http://www.w3.org/2000/svg">
<path d="M34.4375 24.9297C34.4375 26.4531 34.1855 27.7832 33.6816 28.9199C33.1777 30.0449 32.4746 30.9883 31.5723 31.75C30.6816 32.5 29.6211 33.0625 28.3906 33.4375C27.1602 33.8125 25.8242 34 24.3828 34H16.3672V33.4902C16.9297 33.4902 17.375 33.4551 17.7031 33.3848C18.043 33.3145 18.3008 33.1855 18.4766 32.998C18.6523 32.7988 18.7695 32.5293 18.8281 32.1895C18.8867 31.8379 18.916 31.3867 18.916 30.8359V19.1992C18.916 18.6367 18.8926 18.1797 18.8457 17.8281C18.7988 17.4766 18.6875 17.207 18.5117 17.0195C18.3359 16.8203 18.0781 16.6855 17.7383 16.6152C17.3984 16.5449 16.9414 16.5098 16.3672 16.5098V16.0352H23.6621C25.1738 16.0352 26.5859 16.1758 27.8984 16.457C29.2109 16.7383 30.3477 17.2246 31.3086 17.916C32.2812 18.5957 33.043 19.5039 33.5938 20.6406C34.1562 21.7773 34.4375 23.207 34.4375 24.9297ZM31.4492 25.0352C31.4492 23.9219 31.291 22.8848 30.9746 21.9238C30.6699 20.9512 30.207 20.1016 29.5859 19.375C28.9766 18.6484 28.2207 18.0801 27.3184 17.6699C26.4277 17.248 25.3906 17.0371 24.207 17.0371C23.7383 17.0371 23.2754 17.0723 22.8184 17.1426C22.373 17.2129 21.9219 17.3125 21.4648 17.4414V32.6992C21.8867 32.8164 22.3438 32.916 22.8359 32.998C23.3281 33.0684 23.8086 33.1035 24.2773 33.1035C25.4492 33.1035 26.4805 32.8926 27.3711 32.4707C28.2617 32.0371 29.0059 31.457 29.6035 30.7305C30.2129 29.9922 30.6699 29.1367 30.9746 28.1641C31.291 27.1797 31.4492 26.1367 31.4492 25.0352ZM47.6738 34V33.4902C47.873 33.4902 48.0781 33.4785 48.2891 33.4551C48.5 33.4199 48.6934 33.3613 48.8691 33.2793C49.0449 33.1973 49.1914 33.0859 49.3086 32.9453C49.4258 32.793 49.4844 32.5938 49.4844 32.3477C49.4844 32.1133 49.4141 31.7852 49.2734 31.3633C49.1328 30.9414 48.9746 30.5078 48.7988 30.0625C48.623 29.6172 48.4473 29.2012 48.2715 28.8145C48.0957 28.4277 47.9727 28.1523 47.9023 27.9883H40.9414C40.8945 28.082 40.8184 28.2402 40.7129 28.4629C40.6191 28.6738 40.5078 28.9199 40.3789 29.2012C40.25 29.4707 40.1211 29.7578 39.9922 30.0625C39.8633 30.3672 39.7402 30.666 39.623 30.959C39.5176 31.252 39.4297 31.5215 39.3594 31.7676C39.2891 32.0137 39.2539 32.207 39.2539 32.3477C39.2539 32.582 39.3301 32.7754 39.4824 32.9277C39.6348 33.0684 39.8223 33.1797 40.0449 33.2617C40.2676 33.3438 40.4961 33.4023 40.7305 33.4375C40.9648 33.4609 41.1699 33.4785 41.3457 33.4902V34H35.6855V33.4902C36.1074 33.4785 36.4707 33.3789 36.7754 33.1914C37.0801 33.0039 37.3438 32.7637 37.5664 32.4707C37.8008 32.1777 38 31.8555 38.1641 31.5039C38.3281 31.1406 38.4863 30.7832 38.6387 30.4316L44.9844 15.6484H45.4414L51.6816 30.5371C51.8574 30.9473 52.0215 31.3281 52.1738 31.6797C52.3379 32.0195 52.5312 32.3242 52.7539 32.5938C52.9766 32.8516 53.2461 33.0625 53.5625 33.2266C53.8789 33.3789 54.2832 33.4668 54.7754 33.4902V34H47.6738ZM44.4746 19.709L41.3457 27.0215H47.5332L44.4746 19.709ZM74.2168 16.5098C73.6543 16.5098 73.2031 16.5449 72.8633 16.6152C72.5234 16.6855 72.2598 16.8203 72.0723 17.0195C71.8965 17.207 71.7793 17.4707 71.7207 17.8105C71.6738 18.1504 71.6504 18.5898 71.6504 19.1289V34.2812H71.1934L59.3105 19.8145V30.8711C59.3105 31.4336 59.334 31.8848 59.3809 32.2246C59.4395 32.5645 59.5566 32.8281 59.7324 33.0156C59.9082 33.2031 60.166 33.332 60.5059 33.4023C60.8457 33.4609 61.2969 33.4902 61.8594 33.4902V34H55.6016V33.4902C56.1641 33.4902 56.6094 33.4551 56.9375 33.3848C57.2773 33.3145 57.5352 33.1855 57.7109 32.998C57.8867 32.7988 58.0039 32.5293 58.0625 32.1895C58.1211 31.8496 58.1504 31.4102 58.1504 30.8711V18.373C57.9277 18.0684 57.7168 17.8047 57.5176 17.582C57.3301 17.3477 57.125 17.1543 56.9023 17.002C56.6914 16.8379 56.4453 16.7148 56.1641 16.6328C55.8828 16.5508 55.5371 16.5098 55.127 16.5098V16.0352H59.5215L70.5078 29.5V19.1289C70.5078 18.5898 70.4785 18.1504 70.4199 17.8105C70.3613 17.4707 70.2383 17.207 70.0508 17.0195C69.875 16.8203 69.6172 16.6855 69.2773 16.6152C68.9492 16.5449 68.5039 16.5098 67.9414 16.5098V16.0352H74.2168V16.5098ZM75.2539 34V33.4902C75.8281 33.4902 76.2852 33.4551 76.625 33.3848C76.9648 33.3027 77.2227 33.168 77.3984 32.9805C77.5742 32.7812 77.6855 32.5117 77.7324 32.1719C77.7793 31.8203 77.8027 31.375 77.8027 30.8359V19.1992C77.8027 18.6484 77.7793 18.2031 77.7324 17.8633C77.6855 17.5117 77.5742 17.2363 77.3984 17.0371C77.2227 16.8379 76.9648 16.7031 76.625 16.6328C76.2852 16.5508 75.8281 16.5098 75.2539 16.5098V16.0352H82.9531V16.5098C82.3906 16.5098 81.9395 16.5508 81.5996 16.6328C81.2598 16.7031 80.9961 16.8379 80.8086 17.0371C80.6328 17.2363 80.5156 17.5117 80.457 17.8633C80.3984 18.2031 80.3691 18.6484 80.3691 19.1992V30.8359C80.3691 31.375 80.3926 31.8203 80.4395 32.1719C80.498 32.5117 80.6152 32.7812 80.791 32.9805C80.9668 33.168 81.2246 33.3027 81.5645 33.3848C81.9043 33.4551 82.3672 33.4902 82.9531 33.4902V34H75.2539ZM98 34H84.1836V33.4902C84.7461 33.4902 85.1914 33.4551 85.5195 33.3848C85.8594 33.3145 86.1172 33.1855 86.293 32.998C86.4688 32.7988 86.5859 32.5293 86.6445 32.1895C86.7031 31.8379 86.7324 31.3867 86.7324 30.8359V19.1289C86.7324 18.5664 86.709 18.1152 86.6621 17.7754C86.6152 17.4355 86.5039 17.1719 86.3281 16.9844C86.1523 16.7969 85.8945 16.6738 85.5547 16.6152C85.2148 16.5449 84.7578 16.5098 84.1836 16.5098V16.0352H98L98.2109 19.9551H97.7188C97.5664 19.3809 97.4199 18.9062 97.2793 18.5312C97.1504 18.1445 96.9688 17.8398 96.7344 17.6172C96.5117 17.3945 96.2012 17.2363 95.8027 17.1426C95.416 17.0488 94.8887 17.002 94.2207 17.002H89.2637V24.1035H93.2188C93.7695 24.1035 94.209 24.0684 94.5371 23.998C94.877 23.916 95.1465 23.7812 95.3457 23.5938C95.5566 23.3945 95.709 23.1309 95.8027 22.8027C95.9082 22.4629 95.9961 22.0293 96.0664 21.502H96.5586V27.7773H96.0664C95.9961 27.25 95.9082 26.8164 95.8027 26.4766C95.709 26.1367 95.5625 25.8672 95.3633 25.668C95.1641 25.457 94.8945 25.3105 94.5547 25.2285C94.2266 25.1465 93.7812 25.1055 93.2188 25.1055H89.2637V31.0117C89.2637 31.3398 89.2695 31.6328 89.2812 31.8906C89.3047 32.1367 89.3633 32.3477 89.457 32.5234C89.5508 32.6875 89.6973 32.8164 89.8965 32.9102C90.1074 32.9922 90.4004 33.0332 90.7754 33.0332H93.7988C94.584 33.0332 95.2285 32.9688 95.7324 32.8398C96.2363 32.7109 96.6699 32.5059 97.0332 32.2246C97.4082 31.9434 97.7422 31.5801 98.0352 31.1348C98.3281 30.6777 98.6562 30.1328 99.0195 29.5H99.582L98 34ZM114.629 34H100.672V33.4902C101.094 33.4902 101.469 33.4668 101.797 33.4199C102.125 33.3613 102.395 33.2559 102.605 33.1035C102.828 32.9395 102.998 32.7109 103.115 32.418C103.232 32.125 103.291 31.7383 103.291 31.2578V18.7773C103.291 18.3086 103.232 17.9277 103.115 17.6348C102.998 17.3418 102.828 17.1191 102.605 16.9668C102.395 16.8027 102.125 16.6914 101.797 16.6328C101.469 16.5742 101.094 16.5449 100.672 16.5449V16.0352H108.477V16.5449C108.043 16.5449 107.662 16.5742 107.334 16.6328C107.006 16.6914 106.73 16.8027 106.508 16.9668C106.285 17.1191 106.115 17.3418 105.998 17.6348C105.881 17.9277 105.822 18.3086 105.822 18.7773V30.6074C105.822 31.0527 105.857 31.4219 105.928 31.7148C105.998 31.9961 106.115 32.2246 106.279 32.4004C106.455 32.5645 106.689 32.6816 106.982 32.752C107.275 32.8105 107.645 32.8398 108.09 32.8398H109.883C110.75 32.8398 111.477 32.793 112.062 32.6992C112.648 32.5938 113.152 32.4062 113.574 32.1367C114.008 31.8555 114.389 31.4688 114.717 30.9766C115.045 30.4727 115.379 29.8223 115.719 29.0254L116.176 29.0957L114.629 34Z" fill="#222222"/>
<path d="M140.82 34V33.4902C141.383 33.4902 141.828 33.4551 142.156 33.3848C142.496 33.3145 142.754 33.1855 142.93 32.998C143.117 32.7988 143.24 32.5293 143.299 32.1895C143.357 31.8496 143.387 31.4102 143.387 30.8711V18.8828L136.426 34H136.004L129.061 18.8828V30.8711C129.061 31.4219 129.09 31.8672 129.148 32.207C129.207 32.5469 129.324 32.8164 129.5 33.0156C129.676 33.2031 129.928 33.332 130.256 33.4023C130.596 33.4609 131.047 33.4902 131.609 33.4902V34H125.387V33.4902C125.949 33.4902 126.395 33.4551 126.723 33.3848C127.051 33.3145 127.303 33.1855 127.479 32.998C127.654 32.7988 127.766 32.5293 127.812 32.1895C127.871 31.8496 127.9 31.4102 127.9 30.8711V19.1289C127.9 18.6484 127.859 18.2441 127.777 17.916C127.707 17.5762 127.578 17.3066 127.391 17.1074C127.203 16.8965 126.945 16.7441 126.617 16.6504C126.301 16.5566 125.891 16.5098 125.387 16.5098V16.0352H130.449L136.971 30.0801L143.387 16.0352H148.484V16.5098C147.922 16.5098 147.471 16.5449 147.131 16.6152C146.791 16.6855 146.533 16.8203 146.357 17.0195C146.182 17.207 146.064 17.4707 146.006 17.8105C145.959 18.1504 145.936 18.5898 145.936 19.1289V30.8711C145.936 31.4219 145.965 31.8672 146.023 32.207C146.082 32.5469 146.199 32.8164 146.375 33.0156C146.551 33.2031 146.803 33.332 147.131 33.4023C147.471 33.4609 147.922 33.4902 148.484 33.4902V34H140.82ZM171.723 34H157.766V33.4902C158.188 33.4902 158.562 33.4668 158.891 33.4199C159.219 33.3613 159.488 33.2559 159.699 33.1035C159.922 32.9395 160.092 32.7109 160.209 32.418C160.326 32.125 160.385 31.7383 160.385 31.2578V18.7773C160.385 18.3086 160.326 17.9277 160.209 17.6348C160.092 17.3418 159.922 17.1191 159.699 16.9668C159.488 16.8027 159.219 16.6914 158.891 16.6328C158.562 16.5742 158.188 16.5449 157.766 16.5449V16.0352H165.57V16.5449C165.137 16.5449 164.756 16.5742 164.428 16.6328C164.1 16.6914 163.824 16.8027 163.602 16.9668C163.379 17.1191 163.209 17.3418 163.092 17.6348C162.975 17.9277 162.916 18.3086 162.916 18.7773V30.6074C162.916 31.0527 162.951 31.4219 163.021 31.7148C163.092 31.9961 163.209 32.2246 163.373 32.4004C163.549 32.5645 163.783 32.6816 164.076 32.752C164.369 32.8105 164.738 32.8398 165.184 32.8398H166.977C167.844 32.8398 168.57 32.793 169.156 32.6992C169.742 32.5938 170.246 32.4062 170.668 32.1367C171.102 31.8555 171.482 31.4688 171.811 30.9766C172.139 30.4727 172.473 29.8223 172.812 29.0254L173.27 29.0957L171.723 34ZM186.014 34V33.4902C186.213 33.4902 186.418 33.4785 186.629 33.4551C186.84 33.4199 187.033 33.3613 187.209 33.2793C187.385 33.1973 187.531 33.0859 187.648 32.9453C187.766 32.793 187.824 32.5938 187.824 32.3477C187.824 32.1133 187.754 31.7852 187.613 31.3633C187.473 30.9414 187.314 30.5078 187.139 30.0625C186.963 29.6172 186.787 29.2012 186.611 28.8145C186.436 28.4277 186.312 28.1523 186.242 27.9883H179.281C179.234 28.082 179.158 28.2402 179.053 28.4629C178.959 28.6738 178.848 28.9199 178.719 29.2012C178.59 29.4707 178.461 29.7578 178.332 30.0625C178.203 30.3672 178.08 30.666 177.963 30.959C177.857 31.252 177.77 31.5215 177.699 31.7676C177.629 32.0137 177.594 32.207 177.594 32.3477C177.594 32.582 177.67 32.7754 177.822 32.9277C177.975 33.0684 178.162 33.1797 178.385 33.2617C178.607 33.3438 178.836 33.4023 179.07 33.4375C179.305 33.4609 179.51 33.4785 179.686 33.4902V34H174.025V33.4902C174.447 33.4785 174.811 33.3789 175.115 33.1914C175.42 33.0039 175.684 32.7637 175.906 32.4707C176.141 32.1777 176.34 31.8555 176.504 31.5039C176.668 31.1406 176.826 30.7832 176.979 30.4316L183.324 15.6484H183.781L190.021 30.5371C190.197 30.9473 190.361 31.3281 190.514 31.6797C190.678 32.0195 190.871 32.3242 191.094 32.5938C191.316 32.8516 191.586 33.0625 191.902 33.2266C192.219 33.3789 192.623 33.4668 193.115 33.4902V34H186.014ZM182.814 19.709L179.686 27.0215H185.873L182.814 19.709ZM206.967 29.3945C206.967 30.1797 206.809 30.8828 206.492 31.5039C206.176 32.125 205.754 32.6523 205.227 33.0859C204.711 33.5195 204.113 33.8535 203.434 34.0879C202.754 34.3223 202.051 34.4395 201.324 34.4395C200.844 34.4395 200.363 34.3809 199.883 34.2637C199.402 34.1582 198.945 34.041 198.512 33.9121C198.09 33.7832 197.703 33.666 197.352 33.5605C197 33.4434 196.713 33.3848 196.49 33.3848C196.35 33.3848 196.227 33.4199 196.121 33.4902C196.027 33.5488 195.945 33.6309 195.875 33.7363C195.816 33.8418 195.77 33.9531 195.734 34.0703C195.711 34.1992 195.688 34.3223 195.664 34.4395H195.189V28.2344H195.664C195.758 28.9961 195.939 29.6934 196.209 30.3262C196.479 30.959 196.836 31.5039 197.281 31.9609C197.727 32.4062 198.26 32.7578 198.881 33.0156C199.514 33.2617 200.229 33.3848 201.025 33.3848C201.459 33.3848 201.887 33.3262 202.309 33.209C202.742 33.0801 203.123 32.8926 203.451 32.6465C203.791 32.4004 204.066 32.0957 204.277 31.7324C204.488 31.3574 204.594 30.9238 204.594 30.4316C204.594 29.916 204.453 29.4531 204.172 29.043C203.902 28.6211 203.545 28.2344 203.1 27.8828C202.654 27.5195 202.145 27.1797 201.57 26.8633C200.996 26.5352 200.41 26.207 199.812 25.8789C199.227 25.5508 198.646 25.2051 198.072 24.8418C197.498 24.4785 196.988 24.0801 196.543 23.6465C196.098 23.2012 195.734 22.7148 195.453 22.1875C195.184 21.6484 195.049 21.0391 195.049 20.3594C195.049 19.6211 195.189 18.959 195.471 18.373C195.764 17.7871 196.15 17.2949 196.631 16.8965C197.111 16.4863 197.662 16.1758 198.283 15.9648C198.916 15.7539 199.578 15.6484 200.27 15.6484C200.68 15.6484 201.084 15.7012 201.482 15.8066C201.893 15.9121 202.279 16.0293 202.643 16.1582C203.018 16.2754 203.357 16.3867 203.662 16.4922C203.967 16.5977 204.219 16.6504 204.418 16.6504C204.559 16.6504 204.676 16.6152 204.77 16.5449C204.863 16.4746 204.945 16.3926 205.016 16.2988C205.086 16.1934 205.139 16.082 205.174 15.9648C205.221 15.8477 205.256 15.7422 205.279 15.6484H205.789V21.8359H205.279C205.221 21.1328 205.068 20.4707 204.822 19.8496C204.576 19.2168 204.242 18.6719 203.82 18.2148C203.41 17.7461 202.912 17.377 202.326 17.1074C201.74 16.8262 201.066 16.6855 200.305 16.6855C199.906 16.6855 199.52 16.75 199.145 16.8789C198.77 17.0078 198.43 17.1953 198.125 17.4414C197.832 17.6758 197.592 17.9629 197.404 18.3027C197.229 18.6309 197.141 19.0059 197.141 19.4277C197.141 19.9199 197.281 20.3652 197.562 20.7637C197.844 21.1621 198.213 21.5312 198.67 21.8711C199.139 22.2109 199.666 22.5391 200.252 22.8555C200.838 23.1602 201.436 23.4766 202.045 23.8047C202.666 24.1211 203.27 24.4609 203.855 24.8242C204.441 25.1875 204.963 25.5918 205.42 26.0371C205.889 26.4824 206.264 26.9805 206.545 27.5312C206.826 28.0703 206.967 28.6914 206.967 29.3945ZM223.385 34H208.76V33.4902L220.256 17.0723H214.525C213.857 17.0723 213.307 17.1367 212.873 17.2656C212.451 17.3828 212.105 17.5762 211.836 17.8457C211.578 18.1152 211.373 18.4727 211.221 18.918C211.08 19.3633 210.957 19.9023 210.852 20.5352H210.359L210.746 16.0352H224.035L212.223 32.9277H219.57C220.262 32.9277 220.836 32.8457 221.293 32.6816C221.75 32.5059 222.131 32.2598 222.436 31.9434C222.752 31.6152 223.016 31.2227 223.227 30.7656C223.438 30.2969 223.637 29.7695 223.824 29.1836L224.211 29.2539L223.385 34ZM239.434 34H225.477V33.4902C225.898 33.4902 226.273 33.4668 226.602 33.4199C226.93 33.3613 227.199 33.2559 227.41 33.1035C227.633 32.9395 227.803 32.7109 227.92 32.418C228.037 32.125 228.096 31.7383 228.096 31.2578V18.7773C228.096 18.3086 228.037 17.9277 227.92 17.6348C227.803 17.3418 227.633 17.1191 227.41 16.9668C227.199 16.8027 226.93 16.6914 226.602 16.6328C226.273 16.5742 225.898 16.5449 225.477 16.5449V16.0352H233.281V16.5449C232.848 16.5449 232.467 16.5742 232.139 16.6328C231.811 16.6914 231.535 16.8027 231.312 16.9668C231.09 17.1191 230.92 17.3418 230.803 17.6348C230.686 17.9277 230.627 18.3086 230.627 18.7773V30.6074C230.627 31.0527 230.662 31.4219 230.732 31.7148C230.803 31.9961 230.92 32.2246 231.084 32.4004C231.26 32.5645 231.494 32.6816 231.787 32.752C232.08 32.8105 232.449 32.8398 232.895 32.8398H234.688C235.555 32.8398 236.281 32.793 236.867 32.6992C237.453 32.5938 237.957 32.4062 238.379 32.1367C238.812 31.8555 239.193 31.4688 239.521 30.9766C239.85 30.4727 240.184 29.8223 240.523 29.0254L240.98 29.0957L239.434 34ZM260.07 24.9297C260.07 26.207 259.859 27.4199 259.438 28.5684C259.016 29.7168 258.418 30.7305 257.645 31.6094C256.883 32.4766 255.957 33.168 254.867 33.6836C253.789 34.1875 252.582 34.4395 251.246 34.4395C249.91 34.4395 248.697 34.1875 247.607 33.6836C246.529 33.1797 245.604 32.5 244.83 31.6445C244.068 30.7773 243.482 29.7695 243.072 28.6211C242.662 27.4727 242.457 26.2539 242.457 24.9648C242.457 23.6641 242.674 22.4512 243.107 21.3262C243.553 20.1895 244.174 19.2051 244.971 18.373C245.768 17.5293 246.717 16.8672 247.818 16.3867C248.92 15.8945 250.133 15.6484 251.457 15.6484C252.758 15.6484 253.936 15.9004 254.99 16.4043C256.045 16.8965 256.947 17.5703 257.697 18.4258C258.459 19.2695 259.045 20.2539 259.455 21.3789C259.865 22.5039 260.07 23.6875 260.07 24.9297ZM257.047 25.1055C257.047 24.4492 257.012 23.7812 256.941 23.1016C256.883 22.4219 256.771 21.7656 256.607 21.1328C256.443 20.5 256.221 19.9082 255.939 19.3574C255.658 18.8066 255.301 18.3262 254.867 17.916C254.434 17.5059 253.912 17.1836 253.303 16.9492C252.705 16.7031 251.996 16.5801 251.176 16.5801C250.426 16.5801 249.764 16.7031 249.189 16.9492C248.627 17.1836 248.135 17.5059 247.713 17.916C247.291 18.3262 246.939 18.8066 246.658 19.3574C246.377 19.9082 246.148 20.4941 245.973 21.1152C245.809 21.7246 245.691 22.3574 245.621 23.0137C245.551 23.6582 245.516 24.2852 245.516 24.8945C245.516 25.4922 245.551 26.1191 245.621 26.7754C245.691 27.4316 245.814 28.0762 245.99 28.709C246.166 29.3418 246.395 29.9453 246.676 30.5195C246.957 31.0938 247.309 31.5977 247.73 32.0312C248.152 32.4648 248.65 32.8105 249.225 33.0684C249.799 33.3262 250.461 33.4551 251.211 33.4551C251.996 33.4551 252.682 33.3379 253.268 33.1035C253.865 32.8691 254.381 32.5527 254.814 32.1543C255.248 31.7441 255.605 31.2695 255.887 30.7305C256.18 30.1797 256.408 29.5996 256.572 28.9902C256.748 28.3691 256.871 27.7305 256.941 27.0742C257.012 26.4062 257.047 25.75 257.047 25.1055Z" fill="#222222"/>
<path d="M140.82 34V33.4902C141.383 33.4902 141.828 33.4551 142.156 33.3848C142.496 33.3145 142.754 33.1855 142.93 32.998C143.117 32.7988 143.24 32.5293 143.299 32.1895C143.357 31.8496 143.387 31.4102 143.387 30.8711V18.8828L136.426 34H136.004L129.061 18.8828V30.8711C129.061 31.4219 129.09 31.8672 129.148 32.207C129.207 32.5469 129.324 32.8164 129.5 33.0156C129.676 33.2031 129.928 33.332 130.256 33.4023C130.596 33.4609 131.047 33.4902 131.609 33.4902V34H125.387V33.4902C125.949 33.4902 126.395 33.4551 126.723 33.3848C127.051 33.3145 127.303 33.1855 127.479 32.998C127.654 32.7988 127.766 32.5293 127.812 32.1895C127.871 31.8496 127.9 31.4102 127.9 30.8711V19.1289C127.9 18.6484 127.859 18.2441 127.777 17.916C127.707 17.5762 127.578 17.3066 127.391 17.1074C127.203 16.8965 126.945 16.7441 126.617 16.6504C126.301 16.5566 125.891 16.5098 125.387 16.5098V16.0352H130.449L136.971 30.0801L143.387 16.0352H148.484V16.5098C147.922 16.5098 147.471 16.5449 147.131 16.6152C146.791 16.6855 146.533 16.8203 146.357 17.0195C146.182 17.207 146.064 17.4707 146.006 17.8105C145.959 18.1504 145.936 18.5898 145.936 19.1289V30.8711C145.936 31.4219 145.965 31.8672 146.023 32.207C146.082 32.5469 146.199 32.8164 146.375 33.0156C146.551 33.2031 146.803 33.332 147.131 33.4023C147.471 33.4609 147.922 33.4902 148.484 33.4902V34H140.82ZM171.723 34H157.766V33.4902C158.188 33.4902 158.562 33.4668 158.891 33.4199C159.219 33.3613 159.488 33.2559 159.699 33.1035C159.922 32.9395 160.092 32.7109 160.209 32.418C160.326 32.125 160.385 31.7383 160.385 31.2578V18.7773C160.385 18.3086 160.326 17.9277 160.209 17.6348C160.092 17.3418 159.922 17.1191 159.699 16.9668C159.488 16.8027 159.219 16.6914 158.891 16.6328C158.562 16.5742 158.188 16.5449 157.766 16.5449V16.0352H165.57V16.5449C165.137 16.5449 164.756 16.5742 164.428 16.6328C164.1 16.6914 163.824 16.8027 163.602 16.9668C163.379 17.1191 163.209 17.3418 163.092 17.6348C162.975 17.9277 162.916 18.3086 162.916 18.7773V30.6074C162.916 31.0527 162.951 31.4219 163.021 31.7148C163.092 31.9961 163.209 32.2246 163.373 32.4004C163.549 32.5645 163.783 32.6816 164.076 32.752C164.369 32.8105 164.738 32.8398 165.184 32.8398H166.977C167.844 32.8398 168.57 32.793 169.156 32.6992C169.742 32.5938 170.246 32.4062 170.668 32.1367C171.102 31.8555 171.482 31.4688 171.811 30.9766C172.139 30.4727 172.473 29.8223 172.812 29.0254L173.27 29.0957L171.723 34ZM186.014 34V33.4902C186.213 33.4902 186.418 33.4785 186.629 33.4551C186.84 33.4199 187.033 33.3613 187.209 33.2793C187.385 33.1973 187.531 33.0859 187.648 32.9453C187.766 32.793 187.824 32.5938 187.824 32.3477C187.824 32.1133 187.754 31.7852 187.613 31.3633C187.473 30.9414 187.314 30.5078 187.139 30.0625C186.963 29.6172 186.787 29.2012 186.611 28.8145C186.436 28.4277 186.312 28.1523 186.242 27.9883H179.281C179.234 28.082 179.158 28.2402 179.053 28.4629C178.959 28.6738 178.848 28.9199 178.719 29.2012C178.59 29.4707 178.461 29.7578 178.332 30.0625C178.203 30.3672 178.08 30.666 177.963 30.959C177.857 31.252 177.77 31.5215 177.699 31.7676C177.629 32.0137 177.594 32.207 177.594 32.3477C177.594 32.582 177.67 32.7754 177.822 32.9277C177.975 33.0684 178.162 33.1797 178.385 33.2617C178.607 33.3438 178.836 33.4023 179.07 33.4375C179.305 33.4609 179.51 33.4785 179.686 33.4902V34H174.025V33.4902C174.447 33.4785 174.811 33.3789 175.115 33.1914C175.42 33.0039 175.684 32.7637 175.906 32.4707C176.141 32.1777 176.34 31.8555 176.504 31.5039C176.668 31.1406 176.826 30.7832 176.979 30.4316L183.324 15.6484H183.781L190.021 30.5371C190.197 30.9473 190.361 31.3281 190.514 31.6797C190.678 32.0195 190.871 32.3242 191.094 32.5938C191.316 32.8516 191.586 33.0625 191.902 33.2266C192.219 33.3789 192.623 33.4668 193.115 33.4902V34H186.014ZM182.814 19.709L179.686 27.0215H185.873L182.814 19.709ZM206.967 29.3945C206.967 30.1797 206.809 30.8828 206.492 31.5039C206.176 32.125 205.754 32.6523 205.227 33.0859C204.711 33.5195 204.113 33.8535 203.434 34.0879C202.754 34.3223 202.051 34.4395 201.324 34.4395C200.844 34.4395 200.363 34.3809 199.883 34.2637C199.402 34.1582 198.945 34.041 198.512 33.9121C198.09 33.7832 197.703 33.666 197.352 33.5605C197 33.4434 196.713 33.3848 196.49 33.3848C196.35 33.3848 196.227 33.4199 196.121 33.4902C196.027 33.5488 195.945 33.6309 195.875 33.7363C195.816 33.8418 195.77 33.9531 195.734 34.0703C195.711 34.1992 195.688 34.3223 195.664 34.4395H195.189V28.2344H195.664C195.758 28.9961 195.939 29.6934 196.209 30.3262C196.479 30.959 196.836 31.5039 197.281 31.9609C197.727 32.4062 198.26 32.7578 198.881 33.0156C199.514 33.2617 200.229 33.3848 201.025 33.3848C201.459 33.3848 201.887 33.3262 202.309 33.209C202.742 33.0801 203.123 32.8926 203.451 32.6465C203.791 32.4004 204.066 32.0957 204.277 31.7324C204.488 31.3574 204.594 30.9238 204.594 30.4316C204.594 29.916 204.453 29.4531 204.172 29.043C203.902 28.6211 203.545 28.2344 203.1 27.8828C202.654 27.5195 202.145 27.1797 201.57 26.8633C200.996 26.5352 200.41 26.207 199.812 25.8789C199.227 25.5508 198.646 25.2051 198.072 24.8418C197.498 24.4785 196.988 24.0801 196.543 23.6465C196.098 23.2012 195.734 22.7148 195.453 22.1875C195.184 21.6484 195.049 21.0391 195.049 20.3594C195.049 19.6211 195.189 18.959 195.471 18.373C195.764 17.7871 196.15 17.2949 196.631 16.8965C197.111 16.4863 197.662 16.1758 198.283 15.9648C198.916 15.7539 199.578 15.6484 200.27 15.6484C200.68 15.6484 201.084 15.7012 201.482 15.8066C201.893 15.9121 202.279 16.0293 202.643 16.1582C203.018 16.2754 203.357 16.3867 203.662 16.4922C203.967 16.5977 204.219 16.6504 204.418 16.6504C204.559 16.6504 204.676 16.6152 204.77 16.5449C204.863 16.4746 204.945 16.3926 205.016 16.2988C205.086 16.1934 205.139 16.082 205.174 15.9648C205.221 15.8477 205.256 15.7422 205.279 15.6484H205.789V21.8359H205.279C205.221 21.1328 205.068 20.4707 204.822 19.8496C204.576 19.2168 204.242 18.6719 203.82 18.2148C203.41 17.7461 202.912 17.377 202.326 17.1074C201.74 16.8262 201.066 16.6855 200.305 16.6855C199.906 16.6855 199.52 16.75 199.145 16.8789C198.77 17.0078 198.43 17.1953 198.125 17.4414C197.832 17.6758 197.592 17.9629 197.404 18.3027C197.229 18.6309 197.141 19.0059 197.141 19.4277C197.141 19.9199 197.281 20.3652 197.562 20.7637C197.844 21.1621 198.213 21.5312 198.67 21.8711C199.139 22.2109 199.666 22.5391 200.252 22.8555C200.838 23.1602 201.436 23.4766 202.045 23.8047C202.666 24.1211 203.27 24.4609 203.855 24.8242C204.441 25.1875 204.963 25.5918 205.42 26.0371C205.889 26.4824 206.264 26.9805 206.545 27.5312C206.826 28.0703 206.967 28.6914 206.967 29.3945ZM223.385 34H208.76V33.4902L220.256 17.0723H214.525C213.857 17.0723 213.307 17.1367 212.873 17.2656C212.451 17.3828 212.105 17.5762 211.836 17.8457C211.578 18.1152 211.373 18.4727 211.221 18.918C211.08 19.3633 210.957 19.9023 210.852 20.5352H210.359L210.746 16.0352H224.035L212.223 32.9277H219.57C220.262 32.9277 220.836 32.8457 221.293 32.6816C221.75 32.5059 222.131 32.2598 222.436 31.9434C222.752 31.6152 223.016 31.2227 223.227 30.7656C223.438 30.2969 223.637 29.7695 223.824 29.1836L224.211 29.2539L223.385 34ZM239.434 34H225.477V33.4902C225.898 33.4902 226.273 33.4668 226.602 33.4199C226.93 33.3613 227.199 33.2559 227.41 33.1035C227.633 32.9395 227.803 32.7109 227.92 32.418C228.037 32.125 228.096 31.7383 228.096 31.2578V18.7773C228.096 18.3086 228.037 17.9277 227.92 17.6348C227.803 17.3418 227.633 17.1191 227.41 16.9668C227.199 16.8027 226.93 16.6914 226.602 16.6328C226.273 16.5742 225.898 16.5449 225.477 16.5449V16.0352H233.281V16.5449C232.848 16.5449 232.467 16.5742 232.139 16.6328C231.811 16.6914 231.535 16.8027 231.312 16.9668C231.09 17.1191 230.92 17.3418 230.803 17.6348C230.686 17.9277 230.627 18.3086 230.627 18.7773V30.6074C230.627 31.0527 230.662 31.4219 230.732 31.7148C230.803 31.9961 230.92 32.2246 231.084 32.4004C231.26 32.5645 231.494 32.6816 231.787 32.752C232.08 32.8105 232.449 32.8398 232.895 32.8398H234.688C235.555 32.8398 236.281 32.793 236.867 32.6992C237.453 32.5938 237.957 32.4062 238.379 32.1367C238.812 31.8555 239.193 31.4688 239.521 30.9766C239.85 30.4727 240.184 29.8223 240.523 29.0254L240.98 29.0957L239.434 34ZM260.07 24.9297C260.07 26.207 259.859 27.4199 259.438 28.5684C259.016 29.7168 258.418 30.7305 257.645 31.6094C256.883 32.4766 255.957 33.168 254.867 33.6836C253.789 34.1875 252.582 34.4395 251.246 34.4395C249.91 34.4395 248.697 34.1875 247.607 33.6836C246.529 33.1797 245.604 32.5 244.83 31.6445C244.068 30.7773 243.482 29.7695 243.072 28.6211C242.662 27.4727 242.457 26.2539 242.457 24.9648C242.457 23.6641 242.674 22.4512 243.107 21.3262C243.553 20.1895 244.174 19.2051 244.971 18.373C245.768 17.5293 246.717 16.8672 247.818 16.3867C248.92 15.8945 250.133 15.6484 251.457 15.6484C252.758 15.6484 253.936 15.9004 254.99 16.4043C256.045 16.8965 256.947 17.5703 257.697 18.4258C258.459 19.2695 259.045 20.2539 259.455 21.3789C259.865 22.5039 260.07 23.6875 260.07 24.9297ZM257.047 25.1055C257.047 24.4492 257.012 23.7812 256.941 23.1016C256.883 22.4219 256.771 21.7656 256.607 21.1328C256.443 20.5 256.221 19.9082 255.939 19.3574C255.658 18.8066 255.301 18.3262 254.867 17.916C254.434 17.5059 253.912 17.1836 253.303 16.9492C252.705 16.7031 251.996 16.5801 251.176 16.5801C250.426 16.5801 249.764 16.7031 249.189 16.9492C248.627 17.1836 248.135 17.5059 247.713 17.916C247.291 18.3262 246.939 18.8066 246.658 19.3574C246.377 19.9082 246.148 20.4941 245.973 21.1152C245.809 21.7246 245.691 22.3574 245.621 23.0137C245.551 23.6582 245.516 24.2852 245.516 24.8945C245.516 25.4922 245.551 26.1191 245.621 26.7754C245.691 27.4316 245.814 28.0762 245.99 28.709C246.166 29.3418 246.395 29.9453 246.676 30.5195C246.957 31.0938 247.309 31.5977 247.73 32.0312C248.152 32.4648 248.65 32.8105 249.225 33.0684C249.799 33.3262 250.461 33.4551 251.211 33.4551C251.996 33.4551 252.682 33.3379 253.268 33.1035C253.865 32.8691 254.381 32.5527 254.814 32.1543C255.248 31.7441 255.605 31.2695 255.887 30.7305C256.18 30.1797 256.408 29.5996 256.572 28.9902C256.748 28.3691 256.871 27.7305 256.941 27.0742C257.012 26.4062 257.047 25.75 257.047 25.1055Z" fill="#2C65BA"/>
</svg>
